# xmcd CD database file
#
# Track frame offsets:
#	150
#	12760
#	29500
#	41670
#	57730
#	71542
#	85962
#	99922
#	118747
#	133767
#	147950
#	165292
#	179930
#	198252
#	213492
#	228875
#	243817
#	260935
#	277535
#	290065
#	304182
#	304852
#	306170
#	307152
#	307992
#	308912
#	310217
#	311415
#	312075
#	312985
#	313725
#	314565
#	315465
#	316162
#	317480
#	318480
#	319794
#	320795
#	321702
#	322780
#	324275
#
# Disc length: 4337 seconds
#
# Revision: 0
# Processed by: cddbd v1.5.2PL0 Copyright (c) Steve Scherf et al.
# Submitted via: CDex 1.70beta2
#
DISCID=5a10ef29
DTITLE=Jones Country - Jones Country Recurrent CHC-1166
DYEAR=0000
DGENRE=Country
TTITLE0=Clint Black/One Emotion
TTITLE1=Toby Keith/Big Ol' Truck
TTITLE2=Wade Hayes/Don't Stop
TTITLE3=Sawyer Brown/(This Thing Called) Wantin' And Havin' It All
TTITLE4=Daryle Singletary/I Let Her Lie [album version]
TTITLE5=Tracy Lawrence/If The World Had A Front Porch
TTITLE6=Trisha Yearwood/I Wanna Go Too Far
TTITLE7=Collin Raye/One Boy, One Girl
TTITLE8=Martina McBride/Safe In The Arms Of Love
TTITLE9=Shenandoah/Heaven Bound (I'm Ready)
TTITLE10=Blackhawk/I'm Not Strong Enough To Say No [radio edit]
TTITLE11=Terri Clark/Better Things To Do
TTITLE12=Shania Twain/Woman In Me (Needs The Man In You)
TTITLE13=David Lee Murphy/Dust On The Bottle [remix edit]
TTITLE14=Neal McCoy/If I Was A Drinkin' Man [album version]
TTITLE15=Tim McGraw/I Like It, I Love It
TTITLE16=Travis Tritt/Sometimes She Forgets
TTITLE17=Lorrie Morgan/Back In Your Arms Again
TTITLE18=Little Texas/Life Goes On
TTITLE19=John Michael Montgomery/No Man's Land
TTITLE20=Production Track 21
TTITLE21=Production Track 22
TTITLE22=Production Track 23
TTITLE23=Production Track 24
TTITLE24=Production Track 25
TTITLE25=Production Track 26
TTITLE26=Production Track 27
TTITLE27=Production Track 28
TTITLE28=Production Track 29
TTITLE29=Production Track 30
TTITLE30=Production Track 31
TTITLE31=Production Track 32
TTITLE32=Production Track 33
TTITLE33=Production Track 34
TTITLE34=Production Track 35
TTITLE35=Production Track 36
TTITLE36=Production Track 37
TTITLE37=Production Track #8
TTITLE38=Production Track #9
TTITLE39=Production Track 40
TTITLE40=Production Track 41
EXTD=YEAR: 0000
EXTT0=
EXTT1=
EXTT2=
EXTT3=
EXTT4=
EXTT5=
EXTT6=
EXTT7=
EXTT8=
EXTT9=
EXTT10=
EXTT11=
EXTT12=
EXTT13=
EXTT14=
EXTT15=
EXTT16=
EXTT17=
EXTT18=
EXTT19=
EXTT20=
EXTT21=
EXTT22=
EXTT23=
EXTT24=
EXTT25=
EXTT26=
EXTT27=
EXTT28=
EXTT29=
EXTT30=
EXTT31=
EXTT32=
EXTT33=
EXTT34=
EXTT35=
EXTT36=
EXTT37=
EXTT38=
EXTT39=
EXTT40=
PLAYORDER=
